<?xml version="1.0" encoding="UTF-8"?>
<!DOCTYPE svg PUBLIC "-//W3C//DTD SVG 1.1//EN" "http://www.w3.org/Graphics/SVG/1.1/DTD/svg11.dtd">
<!-- Creator: CorelDRAW -->
<svg xmlns="http://www.w3.org/2000/svg" xml:space="preserve" width="6.82666in" height="6.82666in" style="shape-rendering:geometricPrecision; text-rendering:geometricPrecision; image-rendering:optimizeQuality; fill-rule:evenodd; clip-rule:evenodd"
viewBox="0 0 6.82666 6.82666"
 xmlns:xlink="http://www.w3.org/1999/xlink">
 <defs>
  <style type="text/css">
   <![CDATA[
    .fil0 {fill:none}
    .fil2 {fill:#00C853}
    .fil1 {fill:#00E676}
   ]]>
  </style>
 </defs>
 <g id="Layer_x0020_1">
  <metadata id="CorelCorpID_0Corel-Layer"/>
  <g id="_487287528">
   <rect id="_487287624" class="fil0" width="6.82666" height="6.82666"/>
   <rect id="_487288152" class="fil0" x="0.853331" y="0.853331" width="5.12" height="5.12"/>
  </g>
  <path class="fil1" d="M5.97311 3.41333l7.87402e-006 -0.000996063c0.00661811,-0.20952 -0.161425,-0.418709 -0.525606,-0.418709l-1.31246 0c-0.0769921,0 -0.132992,-0.0306929 -0.168016,-0.0921339l-1.16544 -1.9143c-0.0420315,-0.0614094 -0.098,-0.0921024 -0.168008,-0.0921024l-0.377969 0c-0.0280039,0 -0.0490472,0.0102598 -0.0630157,0.0306929 -0.0140039,0.0204843 -0.0174843,0.044374 -0.0105276,0.0716654l0.629988 1.89381c0.0140591,0.0272717 0.0122874,0.0511811 -0.00521654,0.0716693 -0.0174803,0.020437 -0.0402677,0.0306929 -0.0682402,0.0306929l-1.0185 0c-0.0770197,0 -0.1365,-0.0273031 -0.178476,-0.081874l-0.189031 -0.255933c-0.0717047,-0.0933268 -0.551591,-0.164657 -0.503976,0.0204331l0.189 0.634717c0.0101614,0.0329803 0.0154055,0.0659606 0.0157441,0.0989449l1.5748e-005 0.00341732 4.91974 0z"/>
  <path class="fil2" d="M2.18206 5.8292c-0.00695669,0.0272717 -0.00347638,0.051185 0.0105276,0.0716142 0.0139685,0.0204921 0.0350118,0.030752 0.0630157,0.030752l0.377969 0c0.0700079,0 0.125976,-0.030752 0.168008,-0.092189l1.16544 -1.91421c0.0350236,-0.0614409 0.0910551,-0.0921299 0.168016,-0.0921299l1.31246 0c0.336039,0 0.518417,-0.209854 0.525598,-0.419709l-4.91974 0c0,0.0341102 -0.00525591,0.0682283 -0.0157598,0.102362l-0.189 0.634634c-0.0474882,0.185165 0.432315,0.113685 0.503976,0.0205197l0.189031 -0.255937c0.0420039,-0.0545748 0.101457,-0.0818701 0.178476,-0.0818701l1.0185 0c0.0350157,0 0.0595118,0.0102008 0.0734567,0.030689 0.0140591,0.0204921 0.0140591,0.0443425 0,0.0716693l-0.629988 1.89381z"/>
 </g>
</svg>
